<svg width="31" height="36" viewBox="0 0 31 36" fill="none" xmlns="http://www.w3.org/2000/svg">
<path d="M15.46 10C14.085 10 12.9079 9.51042 11.9288 8.53125C10.9496 7.55208 10.46 6.375 10.46 5C10.46 3.625 10.9496 2.44792 11.9288 1.46875C12.9079 0.489583 14.085 0 15.46 0C16.835 0 18.0121 0.489583 18.9913 1.46875C19.9704 2.44792 20.46 3.625 20.46 5C20.46 6.375 19.9704 7.55208 18.9913 8.53125C18.0121 9.51042 16.835 10 15.46 10ZM5.46002 20V16.5C5.46002 15.7917 5.64231 15.1406 6.0069 14.5469C6.37148 13.9531 6.85586 13.5 7.46002 13.1875C8.75169 12.5417 10.0642 12.0573 11.3975 11.7344C12.7309 11.4115 14.085 11.25 15.46 11.25C16.835 11.25 18.1892 11.4115 19.5225 11.7344C20.8559 12.0573 22.1684 12.5417 23.46 13.1875C24.0642 13.5 24.5486 13.9531 24.9131 14.5469C25.2777 15.1406 25.46 15.7917 25.46 16.5V20H5.46002ZM7.96002 17.5H22.96V16.5C22.96 16.2708 22.9027 16.0625 22.7881 15.875C22.6736 15.6875 22.5225 15.5417 22.335 15.4375C21.21 14.875 20.0746 14.4531 18.9288 14.1719C17.7829 13.8906 16.6267 13.75 15.46 13.75C14.2934 13.75 13.1371 13.8906 11.9913 14.1719C10.8454 14.4531 9.71002 14.875 8.58502 15.4375C8.39752 15.5417 8.24648 15.6875 8.1319 15.875C8.01731 16.0625 7.96002 16.2708 7.96002 16.5V17.5ZM15.46 7.5C16.1475 7.5 16.7361 7.25521 17.2256 6.76562C17.7152 6.27604 17.96 5.6875 17.96 5C17.96 4.3125 17.7152 3.72396 17.2256 3.23438C16.7361 2.74479 16.1475 2.5 15.46 2.5C14.7725 2.5 14.184 2.74479 13.6944 3.23438C13.2048 3.72396 12.96 4.3125 12.96 5C12.96 5.6875 13.2048 6.27604 13.6944 6.76562C14.184 7.25521 14.7725 7.5 15.46 7.5Z" fill="#FAFAFA"/>
<path d="M0.420022 34C0.140022 34 2.19941e-05 33.86 2.19941e-05 33.58V27.64C2.19941e-05 27.36 0.140022 27.22 0.420022 27.22H2.76002C3.37002 27.22 3.83669 27.3833 4.16002 27.71C4.48669 28.0333 4.65002 28.5 4.65002 29.11V29.41C4.65002 30.02 4.48669 30.4883 4.16002 30.815C3.83669 31.1383 3.37002 31.3 2.76002 31.3H0.840022V33.58C0.840022 33.86 0.700022 34 0.420022 34ZM0.840022 30.46H2.76002C3.14002 30.46 3.41002 30.38 3.57002 30.22C3.73002 30.06 3.81002 29.79 3.81002 29.41V29.11C3.81002 28.7333 3.73002 28.465 3.57002 28.305C3.41002 28.1417 3.14002 28.06 2.76002 28.06H0.840022V30.46ZM6.35752 34C6.07752 34 5.93752 33.86 5.93752 33.58V29.35C5.93752 29.07 6.07752 28.93 6.35752 28.93C6.63752 28.93 6.77752 29.07 6.77752 29.35V29.74C6.97419 29.4733 7.22419 29.2717 7.52752 29.135C7.83419 28.9983 8.18419 28.93 8.57752 28.93C8.85752 28.93 8.99752 29.07 8.99752 29.35C8.99752 29.63 8.85752 29.77 8.57752 29.77C8.00086 29.77 7.56086 29.8767 7.25752 30.09C6.95419 30.3033 6.79419 30.585 6.77752 30.935V33.58C6.77752 33.86 6.63752 34 6.35752 34ZM11.7298 34C11.0665 34 10.5731 33.84 10.2498 33.52C9.92979 33.2 9.76979 32.71 9.76979 32.05V30.89C9.76979 30.22 9.92979 29.7267 10.2498 29.41C10.5731 29.09 11.0665 28.93 11.7298 28.93H12.5498C13.2165 28.93 13.7098 29.09 14.0298 29.41C14.3498 29.73 14.5098 30.2233 14.5098 30.89V32.04C14.5098 32.7033 14.3498 33.1967 14.0298 33.52C13.7098 33.84 13.2165 34 12.5498 34H11.7298ZM10.6098 32.05C10.6098 32.48 10.6881 32.7733 10.8448 32.93C11.0015 33.0833 11.2965 33.16 11.7298 33.16H12.5498C12.9865 33.16 13.2815 33.0817 13.4348 32.925C13.5915 32.7683 13.6698 32.4733 13.6698 32.04V30.89C13.6698 30.4533 13.5915 30.1583 13.4348 30.005C13.2815 29.8483 12.9865 29.77 12.5498 29.77H11.7298C11.4398 29.77 11.2131 29.8033 11.0498 29.87C10.8898 29.9333 10.7765 30.0467 10.7098 30.21C10.6431 30.37 10.6098 30.5967 10.6098 30.89V32.05ZM16.9577 34C16.6777 34 16.5377 33.86 16.5377 33.58V29.77H16.1677C15.8877 29.77 15.7477 29.63 15.7477 29.35C15.7477 29.07 15.8877 28.93 16.1677 28.93H16.5377V28.89C16.5377 28.2333 16.696 27.7483 17.0127 27.435C17.3293 27.1183 17.8143 26.96 18.4677 26.96H20.0877L19.8277 28.19L18.4677 27.8C18.0543 27.8 17.7693 27.8767 17.6127 28.03C17.456 28.1833 17.3777 28.47 17.3777 28.89V28.93H20.1677C20.4477 28.93 20.5877 29.07 20.5877 29.35C20.5877 29.63 20.4477 29.77 20.1677 29.77H17.3777V33.58C17.3777 33.86 17.2377 34 16.9577 34ZM20.1577 34C19.8777 34 19.7377 33.86 19.7377 33.58V29.35C19.7377 29.07 19.8777 28.93 20.1577 28.93C20.4377 28.93 20.5777 29.07 20.5777 29.35V33.58C20.5777 33.86 20.4377 34 20.1577 34ZM19.9977 28.215C19.6677 28.215 19.5027 28.0517 19.5027 27.725V27.415C19.5027 27.095 19.6677 26.935 19.9977 26.935H20.2927C20.6027 26.935 20.7577 27.095 20.7577 27.415V27.725C20.7577 28.0517 20.6027 28.215 20.2927 28.215H19.9977ZM24.1663 34C23.6563 34 23.2763 33.875 23.0263 33.625C22.7796 33.3717 22.6563 32.99 22.6563 32.48V27.38C22.6563 27.1 22.7963 26.96 23.0763 26.96C23.3563 26.96 23.4963 27.1 23.4963 27.38V32.48C23.4963 32.75 23.5396 32.9317 23.6263 33.025C23.7163 33.115 23.8963 33.16 24.1663 33.16C24.4529 33.16 24.5963 33.3 24.5963 33.58C24.6063 33.86 24.4629 34 24.1663 34ZM26.4887 31.81V32.05C26.4887 32.48 26.567 32.7733 26.7237 32.93C26.8804 33.0833 27.1754 33.16 27.6087 33.16H28.4287C28.7687 33.16 29.0204 33.1283 29.1837 33.065C29.347 33.0017 29.4554 32.89 29.5087 32.73C29.5454 32.6033 29.5954 32.5067 29.6587 32.44C29.7254 32.3733 29.8254 32.34 29.9587 32.34C30.0987 32.34 30.2054 32.3767 30.2787 32.45C30.352 32.5233 30.3754 32.63 30.3487 32.77C30.2754 33.1833 30.0787 33.4917 29.7587 33.695C29.4387 33.8983 28.9954 34 28.4287 34H27.6087C26.9454 34 26.452 33.84 26.1287 33.52C25.8087 33.2 25.6487 32.71 25.6487 32.05V30.89C25.6487 30.2133 25.8087 29.7167 26.1287 29.4C26.452 29.08 26.9454 28.9233 27.6087 28.93H28.4287C29.0954 28.93 29.5887 29.09 29.9087 29.41C30.2287 29.7267 30.3887 30.22 30.3887 30.89V31.39C30.3887 31.67 30.2487 31.81 29.9687 31.81H26.4887ZM27.6087 29.77C27.1754 29.7633 26.8804 29.8383 26.7237 29.995C26.567 30.1517 26.4887 30.45 26.4887 30.89V30.97H29.5487V30.89C29.5487 30.4533 29.4704 30.1583 29.3137 30.005C29.1604 29.8483 28.8654 29.77 28.4287 29.77H27.6087Z" fill="#FAFAFA"/>
</svg>
