<svg width="116" height="20" viewBox="0 0 116 20" fill="none" xmlns="http://www.w3.org/2000/svg">
<rect width="20" height="20" fill="#E6D8BD"/>
<path d="M13.1182 12.7674L12.7576 11.4651L10.0837 13.5172L13.1182 12.7674Z" fill="#E6D8BD"/>
<path d="M7.45455 11.4651L5.54545 17L10.0837 13.5172L12.7576 11.4651L17 8.2093H11.5909L10 3L8.40909 8.2093H3L7.45455 11.4651Z" fill="#282119"/>
<path d="M10.0837 13.5172L14.1364 16.6744L13.1182 12.7674L10.0837 13.5172Z" fill="#282119"/>
<rect width="20" height="20" transform="translate(24)" fill="#E6D8BD"/>
<path d="M37.1182 12.7674L36.7576 11.4651L34.0837 13.5172L37.1182 12.7674Z" fill="#E6D8BD"/>
<path d="M31.4545 11.4651L29.5455 17L34.0837 13.5172L36.7576 11.4651L41 8.2093H35.5909L34 3L32.4091 8.2093H27L31.4545 11.4651Z" fill="#282119"/>
<path d="M34.0837 13.5172L38.1364 16.6744L37.1182 12.7674L34.0837 13.5172Z" fill="#282119"/>
<rect width="20" height="20" transform="translate(48)" fill="#E6D8BD"/>
<path d="M61.1182 12.7674L60.7576 11.4651L58.0837 13.5172L61.1182 12.7674Z" fill="#E6D8BD"/>
<path d="M55.4545 11.4651L53.5455 17L58.0837 13.5172L60.7576 11.4651L65 8.2093H59.5909L58 3L56.4091 8.2093H51L55.4545 11.4651Z" fill="#282119"/>
<path d="M58.0837 13.5172L62.1364 16.6744L61.1182 12.7674L58.0837 13.5172Z" fill="#282119"/>
<rect width="20" height="20" transform="translate(72)" fill="#E6D8BD"/>
<path d="M85.1182 12.7674L84.7576 11.4651L82.0837 13.5172L85.1182 12.7674Z" fill="#E6D8BD"/>
<path d="M79.4545 11.4651L77.5455 17L82.0837 13.5172L84.7576 11.4651L89 8.2093H83.5909L82 3L80.4091 8.2093H75L79.4545 11.4651Z" fill="#282119"/>
<path d="M82.0837 13.5172L86.1364 16.6744L85.1182 12.7674L82.0837 13.5172Z" fill="#282119"/>
<rect width="20" height="20" transform="translate(96)" fill="#E6D8BD"/>
<path d="M109.118 12.7674L108.758 11.4651L106.084 13.5172L109.118 12.7674Z" fill="#E6D8BD"/>
<path d="M103.455 11.4651L101.545 17L106.084 13.5172L108.758 11.4651L113 8.2093H107.591L106 3L104.409 8.2093H99L103.455 11.4651Z" fill="#282119"/>
<path d="M106.084 13.5172L110.136 16.6744L109.118 12.7674L106.084 13.5172Z" fill="#282119"/>
</svg>
