<svg width="113" height="31" viewBox="0 0 113 31" fill="none" xmlns="http://www.w3.org/2000/svg">
<path d="M1.0142 9.27077V6.45454H15.8107V9.27077H10.0787V25H6.74627V9.27077H1.0142ZM16.309 25V11.0909H19.4874V13.4091H19.6323C19.8858 12.6062 20.3205 11.9874 20.9363 11.5527C21.5581 11.112 22.2674 10.8917 23.0643 10.8917C23.2454 10.8917 23.4476 10.9007 23.671 10.9189C23.9004 10.9309 24.0906 10.9521 24.2415 10.9822V13.9977C24.1026 13.9494 23.8823 13.9071 23.5804 13.8709C23.2846 13.8287 22.9979 13.8075 22.7202 13.8075C22.1225 13.8075 21.5852 13.9373 21.1083 14.1969C20.6374 14.4505 20.2662 14.8036 19.9945 15.2564C19.7228 15.7092 19.587 16.2314 19.587 16.823V25H16.309ZM34.5195 19.1502V11.0909H37.7976V25H34.6191V22.5279H34.4743C34.1603 23.3066 33.6442 23.9435 32.9258 24.4386C32.2134 24.9336 31.3351 25.1811 30.2907 25.1811C29.3791 25.1811 28.5732 24.9789 27.8729 24.5744C27.1786 24.1639 26.6353 23.5692 26.2429 22.7905C25.8505 22.0057 25.6543 21.0579 25.6543 19.9471V11.0909H28.9324V19.44C28.9324 20.3214 29.1738 21.0217 29.6568 21.5408C30.1397 22.06 30.7736 22.3196 31.5584 22.3196C32.0414 22.3196 32.5092 22.2019 32.962 21.9664C33.4148 21.731 33.7861 21.3809 34.0758 20.916C34.3716 20.4451 34.5195 19.8565 34.5195 19.1502ZM51.3967 14.7674L48.4084 15.0934C48.3239 14.7915 48.176 14.5078 47.9647 14.2422C47.7595 13.9766 47.4818 13.7623 47.1316 13.5993C46.7815 13.4363 46.3529 13.3548 45.8458 13.3548C45.1636 13.3548 44.5901 13.5027 44.1252 13.7985C43.6664 14.0943 43.44 14.4776 43.4461 14.9485C43.44 15.353 43.5879 15.682 43.8898 15.9355C44.1977 16.1891 44.7048 16.3974 45.4111 16.5604L47.7836 17.0675C49.0997 17.3512 50.0776 17.801 50.7176 18.4167C51.3635 19.0325 51.6895 19.8384 51.6955 20.8345C51.6895 21.7099 51.4329 22.4826 50.9258 23.1527C50.4248 23.8168 49.7275 24.3359 48.834 24.7102C47.9406 25.0845 46.9143 25.2717 45.7552 25.2717C44.0528 25.2717 42.6824 24.9155 41.6441 24.2031C40.6057 23.4847 39.9869 22.4856 39.7877 21.2058L42.9843 20.8979C43.1291 21.5257 43.437 21.9996 43.9079 22.3196C44.3788 22.6396 44.9915 22.7995 45.7462 22.7995C46.5249 22.7995 47.1497 22.6396 47.6206 22.3196C48.0975 21.9996 48.336 21.6042 48.336 21.1333C48.336 20.7349 48.1821 20.4059 47.8742 20.1463C47.5723 19.8867 47.1014 19.6875 46.4615 19.5487L44.089 19.0506C42.7549 18.7729 41.7678 18.305 41.1279 17.647C40.488 16.983 40.171 16.1438 40.1771 15.1296C40.171 14.2724 40.4035 13.5298 40.8743 12.902C41.3513 12.2681 42.0123 11.7791 42.8575 11.435C43.7087 11.0849 44.6897 10.9098 45.8005 10.9098C47.4305 10.9098 48.7133 11.2569 49.649 11.9512C50.5908 12.6454 51.1734 13.5842 51.3967 14.7674ZM60.5791 11.0909V13.6264H52.5832V11.0909H60.5791ZM54.5572 7.75852H57.8353V20.8164C57.8353 21.2571 57.9017 21.5952 58.0345 21.8306C58.1734 22.06 58.3545 22.217 58.5778 22.3015C58.8012 22.386 59.0487 22.4283 59.3204 22.4283C59.5256 22.4283 59.7128 22.4132 59.8818 22.383C60.0569 22.3528 60.1897 22.3256 60.2802 22.3015L60.8326 24.8642C60.6576 24.9245 60.407 24.9909 60.081 25.0634C59.7611 25.1358 59.3687 25.1781 58.9038 25.1902C58.0828 25.2143 57.3433 25.0906 56.6852 24.8189C56.0272 24.5412 55.505 24.1126 55.1187 23.533C54.7383 22.9535 54.5512 22.229 54.5572 21.3597V7.75852ZM62.5556 30.2159V11.0909H65.7793V13.391H65.9695C66.1385 13.0529 66.377 12.6937 66.6849 12.3134C66.9927 11.927 67.4093 11.598 67.9345 11.3263C68.4597 11.0487 69.1298 10.9098 69.9448 10.9098C71.0194 10.9098 71.9883 11.1845 72.8516 11.7338C73.7209 12.2772 74.4091 13.0831 74.9162 14.1516C75.4293 15.2141 75.6859 16.5181 75.6859 18.0636C75.6859 19.5909 75.4354 20.8888 74.9343 21.9574C74.4333 23.0259 73.7511 23.8409 72.8878 24.4023C72.0245 24.9638 71.0465 25.2445 69.9539 25.2445C69.157 25.2445 68.4959 25.1117 67.9707 24.8461C67.4455 24.5804 67.0229 24.2605 66.703 23.8862C66.389 23.5059 66.1445 23.1467 65.9695 22.8086H65.8336V30.2159H62.5556ZM65.7703 18.0455C65.7703 18.945 65.897 19.7328 66.1506 20.4089C66.4102 21.085 66.7814 21.6133 67.2644 21.9936C67.7534 22.3679 68.345 22.555 69.0393 22.555C69.7637 22.555 70.3704 22.3619 70.8594 21.9755C71.3484 21.5831 71.7166 21.0488 71.9642 20.3727C72.2177 19.6905 72.3445 18.9148 72.3445 18.0455C72.3445 17.1822 72.2207 16.4155 71.9732 15.7454C71.7257 15.0753 71.3574 14.5501 70.8684 14.1697C70.3795 13.7894 69.7697 13.5993 69.0393 13.5993C68.339 13.5993 67.7443 13.7834 67.2553 14.1516C66.7664 14.5199 66.3951 15.036 66.1415 15.7001C65.894 16.3642 65.7703 17.146 65.7703 18.0455ZM77.7281 25V11.0909H81.0062V25H77.7281ZM79.3762 9.11683C78.857 9.11683 78.4103 8.94478 78.036 8.60067C77.6617 8.25053 77.4745 7.83096 77.4745 7.34197C77.4745 6.84695 77.6617 6.42738 78.036 6.08327C78.4103 5.73313 78.857 5.55806 79.3762 5.55806C79.9014 5.55806 80.3481 5.73313 80.7164 6.08327C81.0907 6.42738 81.2778 6.84695 81.2778 7.34197C81.2778 7.83096 81.0907 8.25053 80.7164 8.60067C80.3481 8.94478 79.9014 9.11683 79.3762 9.11683ZM86.8901 6.45454V25H83.612V6.45454H86.8901ZM95.5631 25.2717C94.2047 25.2717 93.0275 24.9728 92.0315 24.3752C91.0354 23.7775 90.2626 22.9414 89.7133 21.8668C89.1699 20.7923 88.8983 19.5366 88.8983 18.0998C88.8983 16.663 89.1699 15.4043 89.7133 14.3237C90.2626 13.2431 91.0354 12.4039 92.0315 11.8063C93.0275 11.2086 94.2047 10.9098 95.5631 10.9098C96.9214 10.9098 98.0986 11.2086 99.0947 11.8063C100.091 12.4039 100.86 13.2431 101.404 14.3237C101.953 15.4043 102.228 16.663 102.228 18.0998C102.228 19.5366 101.953 20.7923 101.404 21.8668C100.86 22.9414 100.091 23.7775 99.0947 24.3752C98.0986 24.9728 96.9214 25.2717 95.5631 25.2717ZM95.5812 22.6456C96.3177 22.6456 96.9334 22.4434 97.4285 22.0389C97.9235 21.6284 98.2918 21.079 98.5332 20.3908C98.7807 19.7026 98.9045 18.9359 98.9045 18.0907C98.9045 17.2395 98.7807 16.4698 98.5332 15.7816C98.2918 15.0874 97.9235 14.535 97.4285 14.1245C96.9334 13.714 96.3177 13.5087 95.5812 13.5087C94.8266 13.5087 94.1987 13.714 93.6976 14.1245C93.2026 14.535 92.8313 15.0874 92.5838 15.7816C92.3424 16.4698 92.2216 17.2395 92.2216 18.0907C92.2216 18.9359 92.3424 19.7026 92.5838 20.3908C92.8313 21.079 93.2026 21.6284 93.6976 22.0389C94.1987 22.4434 94.8266 22.6456 95.5812 22.6456ZM111.191 11.0909V13.6264H103.195V11.0909H111.191ZM105.169 7.75852H108.447V20.8164C108.447 21.2571 108.513 21.5952 108.646 21.8306C108.785 22.06 108.966 22.217 109.189 22.3015C109.413 22.386 109.66 22.4283 109.932 22.4283C110.137 22.4283 110.324 22.4132 110.493 22.383C110.668 22.3528 110.801 22.3256 110.892 22.3015L111.444 24.8642C111.269 24.9245 111.019 24.9909 110.693 25.0634C110.373 25.1358 109.98 25.1781 109.515 25.1902C108.694 25.2143 107.955 25.0906 107.297 24.8189C106.639 24.5412 106.117 24.1126 105.73 23.533C105.35 22.9535 105.163 22.229 105.169 21.3597V7.75852Z" fill="#282119"/>
</svg>
