<svg width="21" height="43" viewBox="0 0 21 43" fill="none" xmlns="http://www.w3.org/2000/svg">
<path d="M2.70001 25C2.01251 25 1.42397 24.7552 0.934387 24.2656C0.444804 23.776 0.200012 23.1875 0.200012 22.5V7.5C0.200012 6.8125 0.444804 6.22396 0.934387 5.73438C1.42397 5.24479 2.01251 5 2.70001 5H5.20001C5.20001 3.625 5.6896 2.44792 6.66876 1.46875C7.64793 0.489583 8.82501 0 10.2 0C11.575 0 12.7521 0.489583 13.7313 1.46875C14.7104 2.44792 15.2 3.625 15.2 5H17.7C18.3875 5 18.9761 5.24479 19.4656 5.73438C19.9552 6.22396 20.2 6.8125 20.2 7.5V22.5C20.2 23.1875 19.9552 23.776 19.4656 24.2656C18.9761 24.7552 18.3875 25 17.7 25H2.70001ZM2.70001 22.5H17.7V7.5H15.2V10C15.2 10.3542 15.0802 10.651 14.8406 10.8906C14.6011 11.1302 14.3042 11.25 13.95 11.25C13.5958 11.25 13.299 11.1302 13.0594 10.8906C12.8198 10.651 12.7 10.3542 12.7 10V7.5H7.70001V10C7.70001 10.3542 7.58022 10.651 7.34064 10.8906C7.10105 11.1302 6.80418 11.25 6.45001 11.25C6.09585 11.25 5.79897 11.1302 5.55939 10.8906C5.3198 10.651 5.20001 10.3542 5.20001 10V7.5H2.70001V22.5ZM7.70001 5H12.7C12.7 4.3125 12.4552 3.72396 11.9656 3.23438C11.4761 2.74479 10.8875 2.5 10.2 2.5C9.51251 2.5 8.92397 2.74479 8.43439 3.23438C7.9448 3.72396 7.70001 4.3125 7.70001 5Z" fill="#FAFAFA"/>
<path d="M2.24001 40C1.47668 40 0.911679 39.8183 0.545012 39.455C0.181679 39.0883 1.22637e-05 38.5233 1.22637e-05 37.76V35.46C1.22637e-05 34.69 0.181679 34.1233 0.545012 33.76C0.908346 33.3933 1.47001 33.2133 2.23001 33.22H3.44001C4.06668 33.22 4.54501 33.35 4.87501 33.61C5.20501 33.8667 5.39668 34.2733 5.45001 34.83C5.47001 34.97 5.44335 35.0767 5.37001 35.15C5.29668 35.2233 5.19001 35.26 5.05001 35.26C4.79668 35.26 4.65001 35.12 4.61001 34.84C4.57668 34.5333 4.47001 34.3267 4.29001 34.22C4.11335 34.1133 3.83001 34.06 3.44001 34.06H2.23001C1.87668 34.0567 1.59835 34.0967 1.39501 34.18C1.19501 34.2633 1.05168 34.4083 0.965012 34.615C0.881679 34.8183 0.840012 35.1 0.840012 35.46V37.76C0.840012 38.1167 0.881679 38.3967 0.965012 38.6C1.05168 38.8033 1.19668 38.9483 1.40001 39.035C1.60335 39.1183 1.88335 39.16 2.24001 39.16H3.44001C3.83001 39.16 4.11335 39.1067 4.29001 39C4.47001 38.89 4.57668 38.6833 4.61001 38.38C4.65001 38.1 4.79668 37.96 5.05001 37.96C5.19001 37.96 5.29668 37.9967 5.37001 38.07C5.44335 38.1433 5.47001 38.25 5.45001 38.39C5.39668 38.95 5.20501 39.3583 4.87501 39.615C4.54501 39.8717 4.06668 40 3.44001 40H2.24001ZM8.56759 40C8.00759 40 7.59092 39.8633 7.31759 39.59C7.04426 39.3167 6.90759 38.9 6.90759 38.34C6.90759 37.78 7.04259 37.3633 7.31259 37.09C7.58592 36.8167 8.00426 36.68 8.56759 36.68H10.6826C10.6626 36.33 10.5709 36.0917 10.4076 35.965C10.2443 35.835 9.96426 35.77 9.56759 35.77H8.98759C8.65426 35.77 8.40592 35.7933 8.24259 35.84C8.07926 35.8833 7.96426 35.9633 7.89759 36.08C7.83759 36.22 7.77592 36.3167 7.71259 36.37C7.64926 36.4233 7.55426 36.45 7.42759 36.45C7.28759 36.45 7.17759 36.4117 7.09759 36.335C7.01759 36.255 6.99426 36.15 7.02759 36.02C7.12759 35.6433 7.33592 35.3683 7.65259 35.195C7.97259 35.0183 8.41759 34.93 8.98759 34.93H9.56759C10.2343 34.93 10.7276 35.09 11.0476 35.41C11.3676 35.73 11.5276 36.2233 11.5276 36.89V39.58C11.5276 39.86 11.3876 40 11.1076 40C10.8276 40 10.6876 39.86 10.6876 39.58V39.355C10.3309 39.785 9.81092 40 9.12759 40H8.56759ZM8.56759 39.16H9.12759C9.37426 39.16 9.60592 39.1383 9.82259 39.095C10.0393 39.0483 10.2243 38.965 10.3776 38.845C10.5343 38.725 10.6376 38.5533 10.6876 38.33V37.52H8.56759C8.23759 37.52 8.01759 37.575 7.90759 37.685C7.80092 37.795 7.74759 38.0133 7.74759 38.34C7.74759 38.67 7.80092 38.89 7.90759 39C8.01759 39.1067 8.23759 39.16 8.56759 39.16ZM13.9315 40C13.6515 40 13.5115 39.86 13.5115 39.58V35.35C13.5115 35.07 13.6515 34.93 13.9315 34.93C14.2115 34.93 14.3515 35.07 14.3515 35.35V35.74C14.5482 35.4733 14.7982 35.2717 15.1015 35.135C15.4082 34.9983 15.7582 34.93 16.1515 34.93C16.4315 34.93 16.5715 35.07 16.5715 35.35C16.5715 35.63 16.4315 35.77 16.1515 35.77C15.5748 35.77 15.1348 35.8767 14.8315 36.09C14.5282 36.3033 14.3682 36.585 14.3515 36.935V39.58C14.3515 39.86 14.2115 40 13.9315 40ZM19.9191 40C19.2591 40 18.7724 39.8433 18.4591 39.53C18.1457 39.2167 17.9891 38.7333 17.9891 38.08V35.77H17.4991C17.2191 35.77 17.0791 35.63 17.0791 35.35C17.0791 35.07 17.2191 34.93 17.4991 34.93H17.9891V34.2C17.9891 33.92 18.1291 33.78 18.4091 33.78C18.6891 33.78 18.8291 33.92 18.8291 34.2V34.93H19.9791C20.2591 34.93 20.3991 35.07 20.3991 35.35C20.3991 35.63 20.2591 35.77 19.9791 35.77H18.8291V38.08C18.8291 38.5033 18.9057 38.79 19.0591 38.94C19.2124 39.0867 19.4991 39.16 19.9191 39.16C20.0491 39.16 20.1507 39.1933 20.2241 39.26C20.3007 39.3267 20.3391 39.4333 20.3391 39.58C20.3391 39.86 20.1991 40 19.9191 40Z" fill="#FAFAFA"/>
</svg>
