<svg width="35" height="36" viewBox="0 0 35 36" fill="none" xmlns="http://www.w3.org/2000/svg">
<path d="M26.1595 20L19.1595 13C18.6039 13.4444 17.965 13.7963 17.2428 14.0556C16.5206 14.3148 15.7521 14.4444 14.9372 14.4444C12.9187 14.4444 11.2104 13.7454 9.81225 12.3472C8.4141 10.9491 7.71503 9.24074 7.71503 7.22222C7.71503 5.2037 8.4141 3.49537 9.81225 2.09722C11.2104 0.699074 12.9187 0 14.9372 0C16.9558 0 18.6641 0.699074 20.0622 2.09722C21.4604 3.49537 22.1595 5.2037 22.1595 7.22222C22.1595 8.03704 22.0298 8.80556 21.7706 9.52778C21.5113 10.25 21.1595 10.8889 20.715 11.4444L27.715 18.4444L26.1595 20ZM14.9372 12.2222C16.3261 12.2222 17.5067 11.7361 18.4789 10.7639C19.4511 9.79167 19.9372 8.61111 19.9372 7.22222C19.9372 5.83333 19.4511 4.65278 18.4789 3.68056C17.5067 2.70833 16.3261 2.22222 14.9372 2.22222C13.5484 2.22222 12.3678 2.70833 11.3956 3.68056C10.4234 4.65278 9.93725 5.83333 9.93725 7.22222C9.93725 8.61111 10.4234 9.79167 11.3956 10.7639C12.3678 11.7361 13.5484 12.2222 14.9372 12.2222Z" fill="#FAFAFA"/>
<path d="M1.95003 34C1.38003 34 0.935027 33.885 0.615027 33.655C0.29836 33.425 0.100027 33.07 0.0200269 32.59C0.00669356 32.4433 0.0366935 32.3333 0.110027 32.26C0.18336 32.1867 0.290027 32.15 0.430027 32.15C0.570027 32.15 0.671694 32.1833 0.735027 32.25C0.801694 32.3167 0.846694 32.42 0.870027 32.56C0.920027 32.79 1.02669 32.9483 1.19003 33.035C1.35669 33.1183 1.61003 33.16 1.95003 33.16H3.39003C3.82003 33.16 4.11169 33.0833 4.26503 32.93C4.42169 32.7733 4.50003 32.4833 4.50003 32.06C4.50003 31.63 4.42003 31.3367 4.26003 31.18C4.10003 31.02 3.81003 30.94 3.39003 30.94H2.15003C1.52003 30.94 1.05169 30.7867 0.745027 30.48C0.441694 30.17 0.290027 29.7 0.290027 29.07C0.290027 28.4433 0.440027 27.9783 0.740027 27.675C1.04336 27.3717 1.51003 27.22 2.14003 27.22H3.33003C3.86003 27.22 4.27503 27.3283 4.57503 27.545C4.87836 27.7617 5.07003 28.0933 5.15003 28.54C5.17003 28.6833 5.14336 28.7933 5.07003 28.87C4.99669 28.9433 4.88669 28.98 4.74003 28.98C4.60669 28.98 4.50669 28.945 4.44003 28.875C4.37336 28.805 4.33003 28.7033 4.31003 28.57C4.25669 28.3733 4.15503 28.24 4.00503 28.17C3.85503 28.0967 3.63003 28.06 3.33003 28.06H2.14003C1.74003 28.06 1.47169 28.1317 1.33503 28.275C1.19836 28.415 1.13003 28.68 1.13003 29.07C1.13003 29.4633 1.20003 29.7333 1.34003 29.88C1.48003 30.0267 1.75003 30.1 2.15003 30.1H3.39003C4.04669 30.1 4.53503 30.26 4.85503 30.58C5.17836 30.9 5.34003 31.3933 5.34003 32.06C5.34003 32.7233 5.18003 33.2133 4.86003 33.53C4.54003 33.8433 4.05003 34 3.39003 34H1.95003ZM7.77886 31.81V32.05C7.77886 32.48 7.85719 32.7733 8.01386 32.93C8.17052 33.0833 8.46552 33.16 8.89886 33.16H9.71886C10.0589 33.16 10.3105 33.1283 10.4739 33.065C10.6372 33.0017 10.7455 32.89 10.7989 32.73C10.8355 32.6033 10.8855 32.5067 10.9489 32.44C11.0155 32.3733 11.1155 32.34 11.2489 32.34C11.3889 32.34 11.4955 32.3767 11.5689 32.45C11.6422 32.5233 11.6655 32.63 11.6389 32.77C11.5655 33.1833 11.3689 33.4917 11.0489 33.695C10.7289 33.8983 10.2855 34 9.71886 34H8.89886C8.23552 34 7.74219 33.84 7.41886 33.52C7.09886 33.2 6.93886 32.71 6.93886 32.05V30.89C6.93886 30.2133 7.09886 29.7167 7.41886 29.4C7.74219 29.08 8.23552 28.9233 8.89886 28.93H9.71886C10.3855 28.93 10.8789 29.09 11.1989 29.41C11.5189 29.7267 11.6789 30.22 11.6789 30.89V31.39C11.6789 31.67 11.5389 31.81 11.2589 31.81H7.77886ZM8.89886 29.77C8.46552 29.7633 8.17052 29.8383 8.01386 29.995C7.85719 30.1517 7.77886 30.45 7.77886 30.89V30.97H10.8389V30.89C10.8389 30.4533 10.7605 30.1583 10.6039 30.005C10.4505 29.8483 10.1555 29.77 9.71886 29.77H8.89886ZM15.0767 34C14.5167 34 14.1001 33.8633 13.8267 33.59C13.5534 33.3167 13.4167 32.9 13.4167 32.34C13.4167 31.78 13.5517 31.3633 13.8217 31.09C14.0951 30.8167 14.5134 30.68 15.0767 30.68H17.1917C17.1717 30.33 17.0801 30.0917 16.9167 29.965C16.7534 29.835 16.4734 29.77 16.0767 29.77H15.4967C15.1634 29.77 14.9151 29.7933 14.7517 29.84C14.5884 29.8833 14.4734 29.9633 14.4067 30.08C14.3467 30.22 14.2851 30.3167 14.2217 30.37C14.1584 30.4233 14.0634 30.45 13.9367 30.45C13.7967 30.45 13.6867 30.4117 13.6067 30.335C13.5267 30.255 13.5034 30.15 13.5367 30.02C13.6367 29.6433 13.8451 29.3683 14.1617 29.195C14.4817 29.0183 14.9267 28.93 15.4967 28.93H16.0767C16.7434 28.93 17.2367 29.09 17.5567 29.41C17.8767 29.73 18.0367 30.2233 18.0367 30.89V33.58C18.0367 33.86 17.8967 34 17.6167 34C17.3367 34 17.1967 33.86 17.1967 33.58V33.355C16.8401 33.785 16.3201 34 15.6367 34H15.0767ZM15.0767 33.16H15.6367C15.8834 33.16 16.1151 33.1383 16.3317 33.095C16.5484 33.0483 16.7334 32.965 16.8867 32.845C17.0434 32.725 17.1467 32.5533 17.1967 32.33V31.52H15.0767C14.7467 31.52 14.5267 31.575 14.4167 31.685C14.3101 31.795 14.2567 32.0133 14.2567 32.34C14.2567 32.67 14.3101 32.89 14.4167 33C14.5267 33.1067 14.7467 33.16 15.0767 33.16ZM20.4407 34C20.1607 34 20.0207 33.86 20.0207 33.58V29.35C20.0207 29.07 20.1607 28.93 20.4407 28.93C20.7207 28.93 20.8607 29.07 20.8607 29.35V29.74C21.0573 29.4733 21.3073 29.2717 21.6107 29.135C21.9173 28.9983 22.2673 28.93 22.6607 28.93C22.9407 28.93 23.0807 29.07 23.0807 29.35C23.0807 29.63 22.9407 29.77 22.6607 29.77C22.084 29.77 21.644 29.8767 21.3407 30.09C21.0373 30.3033 20.8773 30.585 20.8607 30.935V33.58C20.8607 33.86 20.7207 34 20.4407 34ZM25.8129 34C25.1496 34 24.6563 33.84 24.3329 33.52C24.0129 33.1967 23.8529 32.7033 23.8529 32.04V30.88C23.8529 30.2133 24.0113 29.72 24.3279 29.4C24.6479 29.08 25.1429 28.9233 25.8129 28.93H26.6329C27.1296 28.93 27.5196 29.0133 27.8029 29.18C28.0896 29.3467 28.2729 29.6033 28.3529 29.95C28.3829 30.09 28.3579 30.1983 28.2779 30.275C28.2013 30.3517 28.0896 30.39 27.9429 30.39C27.8129 30.39 27.7179 30.3567 27.6579 30.29C27.5979 30.2233 27.5429 30.13 27.4929 30.01C27.4429 29.92 27.3513 29.8583 27.2179 29.825C27.0846 29.7883 26.8896 29.77 26.6329 29.77H25.8129C25.3829 29.7633 25.0879 29.8383 24.9279 29.995C24.7713 30.1483 24.6929 30.4433 24.6929 30.88V32.04C24.6929 32.4733 24.7713 32.7683 24.9279 32.925C25.0879 33.0817 25.3829 33.16 25.8129 33.16H26.6329C26.8896 33.16 27.0846 33.1433 27.2179 33.11C27.3513 33.0733 27.4429 33.01 27.4929 32.92C27.5429 32.7933 27.5979 32.6983 27.6579 32.635C27.7213 32.5717 27.8196 32.54 27.9529 32.54C28.0929 32.54 28.2013 32.5783 28.2779 32.655C28.3579 32.7317 28.3829 32.84 28.3529 32.98C28.2729 33.3233 28.0896 33.58 27.8029 33.75C27.5196 33.9167 27.1296 34 26.6329 34H25.8129ZM30.5188 34C30.2388 34 30.0988 33.86 30.0988 33.58V27.38C30.0988 27.1 30.2388 26.96 30.5188 26.96C30.7988 26.96 30.9388 27.1 30.9388 27.38V29.515C31.2921 29.125 31.8121 28.93 32.4988 28.93H32.7788C33.4454 28.93 33.9388 29.09 34.2588 29.41C34.5788 29.73 34.7388 30.2233 34.7388 30.89V33.58C34.7388 33.86 34.5988 34 34.3188 34C34.0388 34 33.8988 33.86 33.8988 33.58V30.89C33.8988 30.4533 33.8188 30.1583 33.6588 30.005C33.5021 29.8483 33.2088 29.77 32.7788 29.77H32.4988C32.0988 29.77 31.7504 29.8167 31.4538 29.91C31.1571 30 30.9854 30.1433 30.9388 30.34V33.58C30.9388 33.86 30.7988 34 30.5188 34Z" fill="#FAFAFA"/>
</svg>
